<svg id="Слой_1" data-name="Слой 1" xmlns="http://www.w3.org/2000/svg" viewBox="0 0 375.57 582.37"><defs><style>.cls-1{font-size:543.68px;fill:#f0d283;}.cls-1,.cls-2,.cls-3,.cls-4{font-family:ToughSansRegular, Tough Sans;}.cls-2,.cls-3,.cls-4,.cls-5,.cls-6{opacity:0.8;}.cls-2,.cls-3,.cls-4{font-size:107.99px;}.cls-2,.cls-7{fill:#6bdad5;}.cls-3,.cls-6{fill:#10cfc9;}.cls-4,.cls-5{fill:#00bbb4;}.cls-7{opacity:0.7;}.cls-8{fill:#f6f6f6;opacity:0.6;}</style></defs><text class="cls-1" transform="translate(16.96 465.96) scale(1.19 1)">К</text><text class="cls-2" transform="translate(0 548.97) scale(1.13 1)">л</text><text class="cls-3" transform="translate(74.26 548.97) scale(1.13 1)">я</text><text class="cls-3" transform="translate(220.24 548.97) scale(1.13 1)">с</text><text class="cls-4" transform="translate(147.42 548.97) scale(1.13 1)">к</text><text class="cls-2" transform="translate(292.36 548.97) scale(1.13 1)">а</text><path class="cls-5" d="M357.13,242.15c-8.6-33.09,2.29-97,2.6-99,.09-.6.07-.9.12-1.5.07-.86.2-2.84-.42-3.08s-1.92,1.75-2.13,2.1c-23,37.43-46.58,68.2-46.58,68.2a298.22,298.22,0,0,1-20.64,23.31c-26.15,26.39-31.23,25.48-44.57,43.38-20.06,26.91-19,66.08,8.14,97.34,22.74,26.15,60.45,28.9,87.48,18.69,6.78-2.56,28.3-8.95,37.2-29.76C397.92,316,370.85,294.91,357.13,242.15Z" transform="translate(-53.1 24.73)"/><path class="cls-6" d="M347.21,252.89c-6.24-27.36,3.06-80.18,3.33-81.9.07-.49.06-.74.11-1.24.06-.71.19-2.35-.29-2.55s-1.51,1.45-1.68,1.74c-18.34,30.95-37.06,56.39-37.06,56.39a251.57,251.57,0,0,1-16.34,19.27c-20.65,21.81-24.58,21.06-35.18,35.86-15.92,22.25-15.65,54.65,5,80.52,17.31,21.63,46.55,23.92,67.67,15.49,5.3-2.12,22.09-7.39,29.28-24.6C377.9,314,357.16,296.54,347.21,252.89Z" transform="translate(-53.1 24.73)"/><path class="cls-7" d="M330.93,277.09c-5-17.76-.17-52.5,0-53.63,0-.32,0-.49,0-.81,0-.47.07-1.55-.27-1.67s-1,1-1.09,1.18c-11.65,20.63-23.7,37.66-23.7,37.66a164.93,164.93,0,0,1-10.6,12.95c-13.48,14.7-16.18,14.3-23,24.2-10.24,14.89-9.15,36.07,5.69,52.54,12.41,13.78,32.42,14.66,46.6,8.69,3.55-1.49,14.85-5.3,19.27-16.71C353.58,316.39,338.94,305.42,330.93,277.09Z" transform="translate(-53.1 24.73)"/><path class="cls-8" d="M318.34,299.22c-3.58-8.22-2.28-24.74-2.25-25.27,0-.16,0-.24,0-.39s0-.73-.22-.77-.52.49-.57.58c-5.73,10.08-11.84,18.48-11.84,18.48a78,78,0,0,1-5.46,6.42c-7,7.34-8.55,7.23-12,12.11-5.17,7.32-3.67,17.27,5.41,24.59,7.59,6.12,18.95,5.92,26.71,2.68,1.95-.81,8.19-2.95,10.21-8.46C332.79,317.06,324.05,312.34,318.34,299.22Z" transform="translate(-53.1 24.73)"/></svg>